<svg width="45" height="41" viewBox="0 0 45 41" fill="none" xmlns="http://www.w3.org/2000/svg">
<path d="M24.6773 6.58296C25.2253 7.08476 25.7443 7.55847 26.1338 8.15356L26.3503 8.48417L26.7081 8.31388C27.7026 7.83835 28.381 7.07751 29.0368 6.34203C29.5313 5.7877 29.9987 5.26326 30.5847 4.86925L30.9489 4.62379L30.7143 4.25152C29.7039 2.64294 28.3535 1.27519 26.7579 0.244413L26.4218 0.026123L26.1646 0.334084C25.1541 1.54466 24.044 2.66842 22.8459 3.69357L22.5841 3.9182L22.7308 4.23069C23.2018 5.23337 23.9518 5.91904 24.6773 6.58296ZM30.5023 13.4369C33.9071 13.4369 36.695 12.0456 38.3526 9.51855L38.55 9.21784L38.3028 8.95698C38.0147 8.65445 37.7394 8.33834 37.464 8.02223C36.6425 7.07932 35.792 6.10472 34.5946 5.458L34.177 5.23247L33.9714 5.6618C32.5711 8.57837 29.8601 9.19066 27.833 9.19066C24.2797 9.19066 20.009 7.20794 18.1105 4.67542L16.616 2.68183L17.3144 5.07396C18.6123 9.52942 24.7761 13.4369 30.5023 13.4369ZM18.7527 21.2564C20.1675 18.5644 20.2264 15.4124 18.9022 12.5547C17.5961 9.73412 15.1786 7.74597 12.4368 7.2333C11.8757 7.127 11.306 7.07272 10.7349 7.07117C7.40528 7.07117 5.22601 9.01495 3.11919 10.8935C2.35201 11.5774 1.6274 12.2277 0.853873 12.7793L0.313131 13.1742L0.869271 13.5556C1.0468 13.6706 1.49334 14.349 1.85293 14.8653C2.9942 16.5047 3.94525 17.8335 4.95609 17.8335C5.31205 17.8335 5.64538 17.4114 6.80385 16.1089C7.29206 15.5609 7.84457 14.8644 8.14076 14.6298C9.46499 13.5782 11.2801 12.138 13.2629 12.138C13.5301 12.138 13.7991 12.1643 14.0608 12.2168C14.9784 12.4007 15.5327 12.8255 15.7546 13.5166C16.2093 14.9323 15.165 17.1025 14.2692 18.0608C13.8172 18.5454 13.3226 18.8941 12.7982 19.2637C12.0464 19.7936 11.2693 20.3425 10.6271 21.3071L10.4188 21.6205L10.6896 21.8832L11.858 23.0226C12.8634 24.0072 13.9032 25.0253 14.9702 25.9872L15.328 26.3096L15.6287 25.9328C16.3053 25.0841 17.0191 24.1811 17.7192 23.2581C17.9076 23.538 18.1078 23.8242 18.3134 24.1177C19.8577 26.3259 21.6086 28.8286 20.4664 32.0993C19.6159 34.5367 16.7437 36.1236 13.5083 35.8908C9.68237 35.6227 6.27669 32.3565 3.09474 25.9057C2.89638 25.5026 2.73334 25.0506 2.57573 24.6131C2.20709 23.5896 1.82485 22.5317 0.935392 21.8741L0.0432129 21.2147L0.218931 22.3098C1.15278 28.1357 3.89 33.7578 7.54205 37.3491C9.75121 39.5248 13.3761 40.9305 16.7763 40.9305C20.7046 40.9305 24.9137 38.8889 24.9427 33.159C24.9681 27.7924 21.6539 24.307 18.99 21.5064L18.7527 21.2564ZM43.5426 16.3353C42.4874 14.3726 38.5202 12.9414 36.5302 13.3771C33.5158 14.0347 31.4026 15.7403 29.5377 17.2456C27.6292 18.7873 25.9798 20.1178 23.7788 20.1178C23.1176 20.1178 22.441 20.0001 21.7109 19.7591L20.5516 19.376L21.1802 20.4222C22.624 22.8252 24.3096 23.9936 26.3331 23.9936C27.977 23.9927 29.66 23.2047 31.3275 22.1839L31.7015 23.2925C32.5484 25.8006 36.2349 29.5206 39.5908 29.5206L39.7918 29.5151C41.2565 29.4499 42.4793 28.6248 43.3289 27.1266C45.0697 24.0588 44.8732 18.8063 43.5426 16.3353ZM33.6326 20.6703C36.1072 18.9883 38.7067 17.261 40.8362 17.6369C41.7628 19.2474 41.3842 20.6341 40.8914 21.5254C39.9513 23.2219 37.8915 24.4075 35.8807 24.4075C34.9333 24.4075 33.5738 24.1376 32.476 22.8532L31.7034 21.9502C32.3492 21.5417 32.9932 21.1042 33.6326 20.6703Z" fill="black"/>
</svg>
