<svg width="41" height="26" viewBox="0 0 41 26" fill="none" xmlns="http://www.w3.org/2000/svg">
<path d="M34.5165 16.2469C34.5139 16.6335 34.3592 17.0035 34.0858 17.2768C33.8125 17.5502 33.4425 17.7049 33.0559 17.7075H27.1671C26.7804 17.7053 26.4102 17.5508 26.1367 17.2773C25.8633 17.0039 25.7087 16.6336 25.7065 16.2469C25.7091 15.8604 25.8638 15.4904 26.1372 15.217C26.4105 14.9437 26.7805 14.789 27.1671 14.7864H33.0559C33.4422 14.7898 33.8117 14.9448 34.0849 15.218C34.358 15.4911 34.513 15.8606 34.5165 16.2469ZM13.9754 16.2469C13.9732 16.6336 13.8186 17.0039 13.5452 17.2773C13.2717 17.5508 12.9015 17.7053 12.5148 17.7075H6.62597C6.23927 17.7053 5.86903 17.5508 5.59559 17.2773C5.32214 17.0039 5.16756 16.6336 5.16538 16.2469C5.16799 15.8604 5.32271 15.4904 5.59606 15.217C5.86941 14.9437 6.2394 14.789 6.62597 14.7864H12.5148C12.9011 14.7894 13.2706 14.9443 13.5436 15.2176C13.8166 15.4909 13.9711 15.8607 13.9737 16.2469H13.9754ZM10.9214 2.69171H29.8493L32.1713 8.60376C32.1348 8.60376 32.0982 8.59712 32.0567 8.59712H8.59776L10.9214 2.69171ZM40.2659 7.18301C40.1699 6.60649 39.8492 6.09158 39.374 5.75119C38.8989 5.4108 38.3082 5.27273 37.7315 5.36724L37.7447 5.36558L34.1215 5.95645C34.0684 5.96644 34.0162 5.98088 33.9655 5.9996L33.9738 5.99628L31.6401 0.0576782H9.1239L6.79028 5.99628C6.74316 5.98002 6.69489 5.96726 6.64589 5.95811L3.01932 5.36558C2.44619 5.27558 1.86065 5.41447 1.389 5.75229C0.917357 6.09011 0.5974 6.59979 0.49815 7.17139L0.49649 7.18467C0.406045 7.75786 0.54476 8.34362 0.882658 8.81537C1.22056 9.28713 1.7305 9.60699 2.3023 9.70584L2.31558 9.7075L4.42513 10.0544C3.08595 11.3398 2.31018 13.1032 2.26745 14.959V25.0685H9.57038V21.2511H30.1995V25.0685H37.5024V19.6777C37.5323 19.5515 37.5489 19.4071 37.5489 19.2577V14.9656C37.5085 13.1765 36.7887 11.4698 35.5356 10.1921L35.5373 10.1938L38.4684 9.71248C39.0445 9.61609 39.5589 9.29513 39.8986 8.82C40.2384 8.34487 40.3759 7.75437 40.2808 7.17803L40.2825 7.19131L40.2659 7.18301Z" fill="black"/>
</svg>
