<svg width="39" height="45" viewBox="0 0 39 45" fill="none" xmlns="http://www.w3.org/2000/svg">
<path d="M32.0568 17.6791H29.8479V17.1508C30.5905 16.3111 31.0777 15.2767 31.2522 14.1695C31.4268 13.0622 31.2814 11.9281 30.8333 10.9007C30.3851 9.87328 29.6528 8.99524 28.7225 8.36993C27.7922 7.74461 26.7027 7.39804 25.5821 7.37101C25.1123 5.73095 24.2393 4.23463 23.0428 3.01862C22.1077 2.06156 20.99 1.30196 19.7559 0.784831C18.5218 0.267706 17.1965 0.00358263 15.8584 0.00811397C13.1056 0.00811397 10.5406 1.13832 8.58759 3.19993C7.62905 2.89451 6.60208 2.8763 5.63331 3.14754C4.66454 3.41878 3.79634 3.96761 3.13574 4.72635C2.47514 5.48509 2.05104 6.42058 1.91572 7.41746C1.7804 8.41434 1.93979 9.42903 2.37423 10.3364C1.67706 10.9552 1.13694 11.7308 0.798384 12.5993C0.459831 13.4678 0.332544 14.4044 0.427015 15.3317C0.521486 16.2591 0.835011 17.1507 1.34174 17.9331C1.84848 18.7155 2.53391 19.3663 3.34153 19.8318V39.0314C3.34299 40.3979 3.88647 41.708 4.85273 42.6743C5.81897 43.6405 7.12907 44.184 8.49556 44.1855H24.6939C26.0604 44.184 27.3705 43.6405 28.3368 42.6743C29.303 41.708 29.8465 40.3979 29.8479 39.0314V38.2952H32.0568C33.8137 38.2932 35.4981 37.5944 36.7404 36.3521C37.9827 35.1098 38.6815 33.4254 38.6834 31.6685V24.3057C38.6815 22.5488 37.9827 20.8644 36.7404 19.6221C35.4981 18.3798 33.8137 17.681 32.0568 17.6791ZM12.177 36.8226C12.177 37.2131 12.0219 37.5877 11.7457 37.8638C11.4695 38.14 11.095 38.2952 10.7044 38.2952C10.3139 38.2952 9.93932 38.14 9.66315 37.8638C9.38699 37.5877 9.23184 37.2131 9.23184 36.8226V22.0968C9.23184 21.7062 9.38699 21.3317 9.66315 21.0555C9.93932 20.7794 10.3139 20.6242 10.7044 20.6242C11.095 20.6242 11.4695 20.7794 11.7457 21.0555C12.0219 21.3317 12.177 21.7062 12.177 22.0968V36.8226ZM18.0673 36.8226C18.0673 37.2131 17.9122 37.5877 17.636 37.8638C17.3598 38.14 16.9853 38.2952 16.5947 38.2952C16.2042 38.2952 15.8296 38.14 15.5535 37.8638C15.2773 37.5877 15.1222 37.2131 15.1222 36.8226V22.0968C15.1222 21.7062 15.2773 21.3317 15.5535 21.0555C15.8296 20.7794 16.2042 20.6242 16.5947 20.6242C16.9853 20.6242 17.3598 20.7794 17.636 21.0555C17.9122 21.3317 18.0673 21.7062 18.0673 22.0968V36.8226ZM23.9576 36.8226C23.9576 37.2131 23.8025 37.5877 23.5263 37.8638C23.2502 38.14 22.8756 38.2952 22.4851 38.2952C22.0945 38.2952 21.7199 38.14 21.4438 37.8638C21.1676 37.5877 21.0125 37.2131 21.0125 36.8226V22.0968C21.0125 21.7062 21.1676 21.3317 21.4438 21.0555C21.7199 20.7794 22.0945 20.6242 22.4851 20.6242C22.8756 20.6242 23.2502 20.7794 23.5263 21.0555C23.8025 21.3317 23.9576 21.7062 23.9576 22.0968V36.8226ZM25.4302 16.2065C24.6635 16.2065 23.5389 15.7297 22.9738 15.1655C22.6977 14.8893 22.3233 14.7341 21.9328 14.7339H10.7044C10.4027 14.7346 10.1086 14.8279 9.86165 15.0012C9.61473 15.1746 9.42702 15.4195 9.32388 15.703C8.69527 17.4223 7.15183 17.6791 6.28669 17.6791C5.50558 17.6791 4.75647 17.3688 4.20415 16.8164C3.65182 16.2641 3.34153 15.515 3.34153 14.7339C3.34153 13.9528 3.65182 13.2037 4.20415 12.6514C4.75647 12.099 5.50558 11.7887 6.28669 11.7887C6.29497 11.7887 7.12606 11.82 7.79608 12.3226C7.95079 12.4386 8.12683 12.523 8.31416 12.571C8.50149 12.619 8.69644 12.6296 8.88788 12.6023C9.07932 12.5749 9.2635 12.5101 9.4299 12.4116C9.5963 12.3131 9.74166 12.1827 9.85769 12.028C9.97372 11.8733 10.0581 11.6973 10.1061 11.51C10.1541 11.3226 10.1648 11.1277 10.1374 10.9362C10.1101 10.7448 10.0453 10.5606 9.94674 10.3942C9.84822 10.2278 9.71788 10.0825 9.56318 9.96642C8.60905 9.27066 7.46702 8.87929 6.28669 8.84359C5.85316 8.84385 5.421 8.89231 4.99818 8.98808C4.85206 8.65203 4.79184 8.28491 4.82295 7.9198C4.85405 7.55468 4.97551 7.20304 5.17636 6.89655C5.37722 6.59006 5.65117 6.33836 5.97353 6.16412C6.29589 5.98988 6.65654 5.89857 7.02298 5.89843C7.37086 5.89676 7.71413 5.97804 8.02433 6.13554C8.33453 6.29304 8.60271 6.52221 8.80664 6.80406C8.97259 7.03297 9.11767 7.27631 9.24013 7.53115C9.28009 7.90643 9.46261 8.25205 9.75001 8.49665C10.0374 8.74126 10.4078 8.86618 10.7846 8.84563C11.1615 8.82508 11.516 8.66063 11.7751 8.38623C12.0342 8.11182 12.1781 7.74841 12.177 7.37101C12.177 6.74792 11.8448 5.97482 11.1867 5.0701C11.1444 5.01212 11.0947 4.95506 11.0532 4.89891C12.397 3.63802 14.0766 2.95327 15.8584 2.95327C16.8054 2.95054 17.7432 3.13797 18.6164 3.50443C19.4896 3.8709 20.2803 4.40894 20.9416 5.08667C21.7687 5.93536 22.3794 6.97072 22.7219 8.10524C23.0644 9.23975 23.1287 10.4401 22.9093 11.6047C22.8732 11.7947 22.8748 11.9899 22.9141 12.1793C22.9534 12.3687 23.0297 12.5484 23.1385 12.7084C23.2472 12.8683 23.3865 13.0052 23.5482 13.1113C23.7099 13.2174 23.8909 13.2905 24.081 13.3267C24.172 13.3438 24.2644 13.3524 24.3571 13.3524C24.6995 13.3521 25.031 13.2324 25.2947 13.0141C25.5585 12.7957 25.7378 12.4923 25.802 12.156C25.9142 11.5666 25.9745 10.9685 25.9824 10.3686C26.7023 10.5063 27.3449 10.9075 27.7847 11.4937C28.2246 12.0799 28.4301 12.809 28.3611 13.5387C28.2921 14.2683 27.9535 14.946 27.4115 15.4393C26.8695 15.9326 26.1631 16.2062 25.4302 16.2065ZM35.7383 31.6685C35.7383 32.6449 35.3504 33.5813 34.66 34.2717C33.9696 34.9621 33.0332 35.35 32.0568 35.35H29.8479V20.6242H32.0568C33.0332 20.6242 33.9696 21.0121 34.66 21.7025C35.3504 22.3929 35.7383 23.3293 35.7383 24.3057V31.6685Z" fill="black"/>
</svg>
