<svg width="41" height="41" viewBox="0 0 41 41" fill="none" xmlns="http://www.w3.org/2000/svg">
<path d="M40.025 21.5136L35.8883 2.8385C35.7362 2.1557 35.3195 1.5611 34.7296 1.18515C34.1397 0.8092 33.4247 0.682603 32.7416 0.833131L14.0667 4.96984C13.7284 5.04477 13.4082 5.1856 13.1243 5.38429C12.8405 5.58299 12.5985 5.83565 12.4123 6.12785C12.2261 6.42005 12.0993 6.74607 12.0391 7.08729C11.9789 7.4285 11.9865 7.77824 12.0614 8.11653L13.7945 15.9408H3.15125C2.45177 15.9416 1.78116 16.2198 1.28655 16.7144C0.791942 17.209 0.513725 17.8796 0.512939 18.5791V37.7069C0.513725 38.4063 0.791942 39.077 1.28655 39.5716C1.78116 40.0662 2.45177 40.3444 3.15125 40.3452H22.279C22.9785 40.3444 23.6491 40.0662 24.1437 39.5716C24.6383 39.077 24.9166 38.4063 24.9173 37.7069V27.5623L38.0196 24.6602C38.7024 24.5081 39.297 24.0914 39.6729 23.5015C40.0489 22.9116 40.1755 22.1967 40.025 21.5136ZM22.279 37.7069H3.15125V18.5791H14.379L16.198 26.7913C16.328 27.3768 16.6533 27.9006 17.1205 28.2766C17.5877 28.6526 18.169 28.8584 18.7688 28.8601C18.9624 28.86 19.1555 28.8387 19.3446 28.7967L22.2797 28.1465L22.2807 37.7069H22.279ZM37.4493 22.0842L18.7739 26.2208L14.6373 7.54566L33.3125 3.40878L37.4507 22.0835L37.4493 22.0842Z" fill="black"/>
<path d="M5.78943 21.2174H9.08732V24.5153H5.78943V21.2174ZM5.78943 31.7707H9.08732V35.0686H5.78943V31.7707ZM16.3427 31.7707H19.6406V35.0686H16.3427V31.7707ZM11.0661 26.494H14.3639V29.7919H11.0661V26.494ZM17.7819 9.55664L21.0018 8.84396L21.7145 12.0639L18.4946 12.7766L17.7819 9.55664ZM30.3693 17.5724L33.5892 16.8592L34.3023 20.0791L31.0824 20.7923L30.3693 17.5724ZM24.0766 13.5614L27.2964 12.8483L28.0096 16.0681L24.7898 16.7812L24.0766 13.5614Z" fill="black"/>
</svg>
