<svg width="17" height="13" viewBox="0 0 17 13" fill="none" xmlns="http://www.w3.org/2000/svg">
<path d="M10.325 10.8742H1.50445L1.50268 1.99839L8.22631 6.6533C8.32462 6.72133 8.44134 6.75777 8.5609 6.75777C8.68046 6.75777 8.79718 6.72133 8.89549 6.6533L15.6174 2.00074V7.34601H16.7934V1.46563C16.793 1.15386 16.6689 0.854987 16.4485 0.634531C16.228 0.414075 15.9291 0.290017 15.6174 0.289551H1.50445C1.19263 0.289862 0.893667 0.41387 0.673178 0.634359C0.452688 0.854849 0.32868 1.15381 0.328369 1.46563V10.8742C0.328836 11.186 0.452893 11.4849 0.673349 11.7053C0.893805 11.9258 1.19267 12.0498 1.50445 12.0503H10.325V10.8742ZM14.3231 1.46563L8.5609 5.45488L2.79872 1.46563H14.3231Z" fill="white"/>
</svg>
