<svg width="44" height="44" viewBox="0 0 44 44" fill="none" xmlns="http://www.w3.org/2000/svg">
<circle cx="22.2412" cy="21.7932" r="21.2998" fill="#2E9280"/>
<path d="M32.6139 15.637H15.2855C14.2457 15.637 13.5526 16.3301 13.5526 17.3698V29.4997C13.5526 30.5394 14.2457 31.2325 15.2855 31.2325H22.2168V29.4997H15.2855V17.3698H32.6139V29.4997H26.3756L22.2168 35.3913L23.6031 36.431L27.2421 31.2325H32.6139C33.6536 31.2325 34.3467 30.5394 34.3467 29.4997V17.3698C34.3467 16.3301 33.6536 15.637 32.6139 15.637Z" fill="white"/>
<path d="M11.8198 26.034H10.0869V14.7705C10.0869 13.2976 11.2133 12.1713 12.6862 12.1713H23.9496V13.9041H12.6862C12.1663 13.9041 11.8198 14.2507 11.8198 14.7705V26.034Z" fill="white"/>
</svg>
