<svg width="42" height="39" viewBox="0 0 42 39" fill="none" xmlns="http://www.w3.org/2000/svg">
<path d="M8.13706 12.5428L9.26549 11.5044C10.5241 10.368 12.6074 10.368 13.9094 11.5827L13.9528 11.6415C15.0161 12.6211 16.4267 13.0914 17.9674 13.2285C20.0724 13.4048 22.1122 14.4236 23.4577 16.2654C24.9333 18.3813 24.9116 21.2027 23.3709 23.2991C22.7897 24.1288 22.0083 24.8291 21.0849 25.3475C20.1616 25.8659 19.1203 26.189 18.0391 26.2927C16.9579 26.3963 15.8647 26.2778 14.8414 25.946C13.8181 25.6142 12.8911 25.0777 12.13 24.3767C10.9147 23.2991 10.2203 21.908 10.0467 20.4582C9.87311 19.0279 9.24379 17.676 8.13706 16.6768C6.87843 15.56 6.87843 13.6791 8.13706 12.5428ZM17.2513 28.2952C14.7123 28.2952 12.347 27.4135 10.5892 25.7873C9.07019 24.3767 8.11536 22.6133 7.87666 20.6933C7.81156 20.1055 7.61625 19.3414 7.09544 18.6361C5.7934 20.2622 5.01218 22.2215 5.01218 24.3767C5.01218 27.5898 6.74823 30.4308 9.4174 32.2137H37.563V30.2544C37.563 23.2011 32.3766 17.2254 25.2805 15.2661C27.2119 18.0091 27.1685 21.6729 25.1937 24.3767C23.4577 26.8257 20.463 28.2952 17.2513 28.2952ZM28.4054 11.7591H31.1614C33.0493 11.7591 34.6986 12.9542 34.6986 15.0898V16.5396H37.4111V14.5804C37.4111 11.6415 34.525 9.40796 31.1614 9.40796H28.4054C26.6043 9.40796 25.0635 7.80137 25.0635 6.15559C25.0635 4.50982 26.6043 3.29508 28.4054 3.29508V0.865601C25.0635 0.865601 22.3726 3.29508 22.3726 6.31233C22.3726 9.32959 25.0635 11.7591 28.4054 11.7591ZM6.09721 11.7395C6.22741 11.5435 6.40102 11.3476 6.59632 11.1517L7.72475 10.1329C7.92006 9.95655 8.13706 9.8194 8.35407 9.68225L5.29429 6.88052C5.5981 6.35152 5.48959 5.66578 5.01218 5.21515C4.70143 4.94203 4.28488 4.78921 3.8512 4.78921C3.41752 4.78921 3.00097 4.94203 2.69022 5.21515C2.38641 5.48944 2.23451 5.82252 2.21281 6.17518C1.8222 6.19478 1.45329 6.33192 1.14948 6.60622C0.520161 7.1744 0.520161 8.11485 1.14948 8.70262C1.64859 9.13366 2.38641 9.23162 2.99403 8.95733L6.09721 11.7395ZM36.2393 5.54822C37.346 4.549 38.0405 3.19712 38.0405 1.68849H35.3279C35.3279 3.31467 33.8089 4.68615 32.0077 4.68615V7.11563C36.044 7.11563 39.2123 10.0937 39.2123 13.7379V18.4989H41.9032V13.7379C41.914 12.0289 41.3876 10.3521 40.385 8.90244C39.3824 7.45277 37.9449 6.28966 36.2393 5.54822ZM7.18224 38.0915H37.563C39.9718 38.0915 41.9032 36.3477 41.9032 34.173H2.84212C2.84212 35.2122 3.29938 36.2089 4.11331 36.9438C4.92724 37.6786 6.03117 38.0915 7.18224 38.0915Z" fill="black"/>
</svg>
