<svg width="44" height="44" viewBox="0 0 44 44" fill="none" xmlns="http://www.w3.org/2000/svg">
<circle cx="21.7104" cy="21.7931" r="21.2998" fill="#2E9280"/>
<path d="M33.4481 10.0554C34.7565 11.3684 35.4912 13.1465 35.4912 15.0001C35.4912 16.8538 34.7565 18.6319 33.4481 19.9449L30.9677 22.4092C29.1519 24.2249 26.5903 24.7924 24.2558 24.1763L28.5034 19.9449L29.7355 18.6965L30.9677 17.4644C32.3295 16.1026 32.3295 13.8977 30.9677 12.5359C30.6462 12.2084 30.2627 11.9483 29.8396 11.7708C29.4165 11.5932 28.9623 11.5018 28.5034 11.5018C28.0445 11.5018 27.5903 11.5932 27.1672 11.7708C26.7441 11.9483 26.3606 12.2084 26.0391 12.5359L24.7908 13.768L19.311 19.2478C18.7112 16.9132 19.2786 14.3516 21.0944 12.5359L23.5587 10.0554C24.8717 8.74699 26.6498 8.01233 28.5034 8.01233C30.357 8.01233 32.1351 8.74699 33.4481 10.0554ZM18.6139 27.3539L27.2713 18.6965C27.9522 18.0156 27.9522 16.9132 27.2713 16.2323C26.5579 15.5351 25.4393 15.6 24.7908 16.2323L16.1496 24.8896C15.4687 25.5706 15.4687 26.673 16.1496 27.3539C16.863 28.051 17.9816 27.9862 18.6139 27.3539ZM17.3818 31.0665L24.0937 24.3384C24.7097 26.673 24.1423 29.2345 22.3265 31.0503L19.8622 33.5308C18.5492 34.8392 16.7711 35.5739 14.9175 35.5739C13.0639 35.5739 11.2858 34.8392 9.97275 33.5308C8.66435 32.2178 7.92969 30.4397 7.92969 28.586C7.92969 26.7324 8.66435 24.9543 9.97275 23.6413L12.4532 21.177C14.269 19.3612 16.8305 18.7938 19.1651 19.3937L12.4532 26.1218C11.0752 27.4836 11.0752 29.6885 12.4532 31.0665C13.8151 32.4284 16.0199 32.4284 17.3818 31.0665Z" fill="white"/>
</svg>
