<svg width="44" height="44" viewBox="0 0 44 44" fill="none" xmlns="http://www.w3.org/2000/svg">
<circle cx="22.2412" cy="21.9722" r="21.2998" fill="#2E9280"/>
<path d="M22.2413 8.96265C29.4264 8.96265 35.2507 14.787 35.2507 21.9721C35.2523 23.9253 34.8134 25.8537 33.9664 27.6138C33.1195 29.3738 31.8865 30.9202 30.3591 32.1377L30.0482 32.3796H32.6488C32.9804 32.38 33.2993 32.507 33.5404 32.7346C33.7815 32.9622 33.9266 33.2733 33.9461 33.6043C33.9655 33.9354 33.8578 34.2613 33.645 34.5156C33.4322 34.7698 33.1303 34.9333 32.801 34.9724L32.6488 34.9815H22.2413C15.0561 34.9815 9.23181 29.1572 9.23181 21.9721C9.23181 14.787 15.0561 8.96265 22.2413 8.96265ZM22.2413 11.5645C19.481 11.5645 16.8338 12.661 14.882 14.6128C12.9302 16.5646 11.8337 19.2118 11.8337 21.9721C11.8337 24.7323 12.9302 27.3795 14.882 29.3313C16.8338 31.2831 19.481 32.3796 22.2413 32.3796C25.0015 32.3796 27.6487 31.2831 29.6005 29.3313C31.5523 27.3795 32.6488 24.7323 32.6488 21.9721C32.6488 19.2118 31.5523 16.5646 29.6005 14.6128C27.6487 12.661 25.0015 11.5645 22.2413 11.5645ZM22.2413 24.574C22.9313 24.574 23.5931 24.8481 24.0811 25.3361C24.569 25.824 24.8431 26.4858 24.8431 27.1759C24.8431 27.8659 24.569 28.5277 24.0811 29.0157C23.5931 29.5036 22.9313 29.7778 22.2413 29.7778C21.5512 29.7778 20.8894 29.5036 20.4014 29.0157C19.9135 28.5277 19.6394 27.8659 19.6394 27.1759C19.6394 26.4858 19.9135 25.824 20.4014 25.3361C20.8894 24.8481 21.5512 24.574 22.2413 24.574ZM17.0375 19.3702C17.7275 19.3702 18.3893 19.6443 18.8773 20.1323C19.3652 20.6202 19.6394 21.282 19.6394 21.9721C19.6394 22.6622 19.3652 23.324 18.8773 23.8119C18.3893 24.2998 17.7275 24.574 17.0375 24.574C16.3474 24.574 15.6856 24.2998 15.1977 23.8119C14.7097 23.324 14.4356 22.6622 14.4356 21.9721C14.4356 21.282 14.7097 20.6202 15.1977 20.1323C15.6856 19.6443 16.3474 19.3702 17.0375 19.3702ZM27.445 19.3702C28.1351 19.3702 28.7969 19.6443 29.2848 20.1323C29.7728 20.6202 30.0469 21.282 30.0469 21.9721C30.0469 22.6622 29.7728 23.324 29.2848 23.8119C28.7969 24.2998 28.1351 24.574 27.445 24.574C26.755 24.574 26.0932 24.2998 25.6052 23.8119C25.1173 23.324 24.8431 22.6622 24.8431 21.9721C24.8431 21.282 25.1173 20.6202 25.6052 20.1323C26.0932 19.6443 26.755 19.3702 27.445 19.3702ZM22.2413 14.1664C22.9313 14.1664 23.5931 14.4405 24.0811 14.9285C24.569 15.4164 24.8431 16.0782 24.8431 16.7683C24.8431 17.4584 24.569 18.1202 24.0811 18.6081C23.5931 19.0961 22.9313 19.3702 22.2413 19.3702C21.5512 19.3702 20.8894 19.0961 20.4014 18.6081C19.9135 18.1202 19.6394 17.4584 19.6394 16.7683C19.6394 16.0782 19.9135 15.4164 20.4014 14.9285C20.8894 14.4405 21.5512 14.1664 22.2413 14.1664Z" fill="white"/>
</svg>
