<svg width="22" height="19" viewBox="0 0 22 19" fill="none" xmlns="http://www.w3.org/2000/svg">
<path d="M19.382 0.272858H2.74932C2.25918 0.272858 1.78912 0.467565 1.44253 0.814147C1.09595 1.16073 0.901245 1.63079 0.901245 2.12094V13.2094C0.901245 13.6995 1.09595 14.1696 1.44253 14.5162C1.78912 14.8628 2.25918 15.0575 2.74932 15.0575H9.2176V16.9056H7.36952V18.7536H14.7618V16.9056H12.9138V15.0575H19.382C19.8722 15.0575 20.3422 14.8628 20.6888 14.5162C21.0354 14.1696 21.2301 13.6995 21.2301 13.2094V2.12094C21.2301 1.63079 21.0354 1.16073 20.6888 0.814147C20.3422 0.467565 19.8722 0.272858 19.382 0.272858ZM19.382 6.74113H12.9138V8.58921H19.382V13.2094H2.74932V8.58921H7.36952V11.3613L11.0657 7.66517L7.36952 3.96901V6.74113H2.74932V2.12094H19.382V6.74113Z" fill="white"/>
</svg>
