<svg width="45" height="45" viewBox="0 0 45 45" fill="none" xmlns="http://www.w3.org/2000/svg">
<path d="M44.4947 36.0654V33.1321H41.4132C41.2241 32.214 40.8595 31.341 40.3396 30.561L42.5249 28.3757L40.4511 26.3019L38.2658 28.4872C37.4858 27.9671 36.6128 27.6026 35.6947 27.4136V24.3321H32.7614V27.4136C31.8433 27.6027 30.9703 27.9673 30.1903 28.4872L28.005 26.3019L25.9312 28.3757L28.1165 30.561C27.5964 31.3409 27.2319 32.2139 27.0429 33.1321H23.9614V36.0654H27.0429C27.2321 36.9835 27.5966 37.8564 28.1165 38.6365L25.9312 40.8218L28.005 42.8956L30.1903 40.7103C30.9702 41.2304 31.8432 41.5949 32.7614 41.7839V44.8654H35.6947V41.7839C36.6128 41.5948 37.4858 41.2302 38.2658 40.7103L40.4511 42.8956L42.5249 40.8218L40.3396 38.6365C40.8597 37.8566 41.2242 36.9836 41.4132 36.0654H44.4947ZM34.228 38.9987C31.8022 38.9987 29.8281 37.0246 29.8281 34.5987C29.8281 32.1729 31.8022 30.1988 34.228 30.1988C36.6539 30.1988 38.628 32.1729 38.628 34.5987C38.628 37.0246 36.6539 38.9987 34.228 38.9987ZM26.8947 22.8655H15.1615C14.3835 22.8655 13.6374 22.5564 13.0873 22.0063C12.5372 21.4562 12.2281 20.7101 12.2281 19.9321V3.79889C12.2281 3.02093 12.5372 2.27482 13.0873 1.72472C13.6374 1.17462 14.3835 0.86557 15.1615 0.86557H26.8947C27.6727 0.86557 28.4188 1.17462 28.9689 1.72472C29.519 2.27482 29.8281 3.02093 29.8281 3.79889V19.9321C29.8281 20.7101 29.519 21.4562 28.9689 22.0063C28.4188 22.5564 27.6727 22.8655 26.8947 22.8655ZM15.1615 19.9321H26.8947V3.79889H15.1615V19.9321Z" fill="black"/>
<path d="M22.4942 28.7321H9.29428C8.51632 28.7321 7.77022 28.423 7.22011 27.8729C6.67001 27.3228 6.36096 26.5767 6.36096 25.7988V8.19885H9.29428V25.7988H22.4942V28.7321Z" fill="black"/>
<path d="M16.6275 34.5987H3.42758C1.80986 34.5987 0.494263 33.2831 0.494263 31.6654V14.0655H3.42758V31.6654H16.6275V34.5987Z" fill="black"/>
</svg>
