<svg width="43" height="44" viewBox="0 0 43 44" fill="none" xmlns="http://www.w3.org/2000/svg">
<circle cx="21.6138" cy="22.254" r="21.2998" fill="#2E9280"/>
<path d="M34.3358 14.0495L22.9147 10.2425C22.7193 10.1773 22.5081 10.1773 22.3127 10.2425L10.8916 14.0495C10.7021 14.1127 10.5373 14.2339 10.4205 14.3959C10.3037 14.558 10.2408 14.7527 10.2408 14.9525V24.47C10.2408 24.7225 10.3411 24.9646 10.5196 25.143C10.6981 25.3215 10.9402 25.4218 11.1926 25.4218C11.445 25.4218 11.6871 25.3215 11.8656 25.143C12.0441 24.9646 12.1444 24.7225 12.1444 24.47V16.273L16.1406 17.6043C15.0788 19.3196 14.7412 21.3862 15.2018 23.3502C15.6624 25.3142 16.8836 27.0152 18.5973 28.0796C16.4558 28.9195 14.6047 30.4388 13.2508 32.516C13.1804 32.6206 13.1315 32.7382 13.1069 32.8619C13.0823 32.9857 13.0826 33.113 13.1077 33.2366C13.1328 33.3602 13.1822 33.4776 13.2531 33.582C13.3239 33.6863 13.4148 33.7755 13.5205 33.8445C13.6261 33.9134 13.7444 33.9606 13.8685 33.9834C13.9925 34.0062 14.1199 34.0041 14.2431 33.9772C14.3664 33.9503 14.483 33.8993 14.5864 33.8269C14.6897 33.7546 14.7776 33.6624 14.845 33.5558C16.6378 30.8052 19.4693 29.2288 22.6137 29.2288C25.7581 29.2288 28.5896 30.8052 30.3824 33.5558C30.522 33.7632 30.7377 33.9074 30.9827 33.9572C31.2278 34.007 31.4826 33.9583 31.692 33.8216C31.9015 33.685 32.0488 33.4715 32.102 33.2272C32.1553 32.9828 32.1102 32.7274 31.9766 32.516C30.6227 30.4388 28.7644 28.9195 26.6301 28.0796C28.3421 27.0152 29.5622 25.3154 30.0227 23.3528C30.4833 21.3902 30.1467 19.3251 29.0868 17.6102L34.3358 15.8614C34.5253 15.7983 34.6902 15.6771 34.8071 15.515C34.9239 15.3529 34.9868 15.1582 34.9868 14.9584C34.9868 14.7586 34.9239 14.5639 34.8071 14.4018C34.6902 14.2398 34.5253 14.1186 34.3358 14.0554V14.0495ZM28.3243 21.6148C28.3245 22.5176 28.1107 23.4076 27.7004 24.2118C27.2901 25.0159 26.6949 25.7114 25.9638 26.241C25.2327 26.7707 24.3864 27.1194 23.4944 27.2586C22.6024 27.3979 21.6901 27.3236 20.8323 27.042C19.9745 26.7604 19.1958 26.2794 18.5599 25.6385C17.924 24.9976 17.4492 24.2151 17.1743 23.3551C16.8994 22.4952 16.8323 21.5823 16.9786 20.6914C17.1248 19.8006 17.4802 18.957 18.0155 18.2301L22.3127 19.6577C22.5081 19.7229 22.7193 19.7229 22.9147 19.6577L27.2119 18.2301C27.935 19.2104 28.3248 20.3966 28.3243 21.6148ZM22.6137 17.7566L14.2025 14.9525L22.6137 12.1483L31.0249 14.9525L22.6137 17.7566Z" fill="white"/>
</svg>
