<svg width="44" height="44" viewBox="0 0 44 44" fill="none" xmlns="http://www.w3.org/2000/svg">
<circle cx="22.1885" cy="21.7931" r="21.2998" fill="#2E9280"/>
<path d="M25.5478 27.4162C25.5478 27.6044 25.4731 27.7848 25.34 27.9179C25.2069 28.051 25.0264 28.1257 24.8383 28.1257H14.9044C14.7483 28.1257 14.5992 28.2676 14.4715 28.3599L12.0661 30.2544V18.9014C12.0661 18.7132 12.1409 18.5327 12.2739 18.3997C12.407 18.2666 12.5875 18.1918 12.7757 18.1918H15.5146V16.7727H12.7757C12.2111 16.7727 11.6697 16.997 11.2705 17.3962C10.8712 17.7954 10.647 18.3368 10.647 18.9014V31.6736C10.648 31.8053 10.6858 31.9342 10.7559 32.0458C10.8261 32.1573 10.926 32.2471 11.0443 32.3051C11.1583 32.3569 11.284 32.3777 11.4087 32.3652C11.5333 32.3527 11.6524 32.3075 11.7539 32.2341L15.4081 29.5449H24.9447C25.2136 29.5528 25.4813 29.5055 25.7312 29.4058C25.9811 29.306 26.2079 29.1561 26.3974 28.9652C26.587 28.7743 26.7354 28.5465 26.8333 28.2959C26.9313 28.0453 26.9768 27.7773 26.9669 27.5084V26.7066H25.5478V27.4162Z" fill="white"/>
<path d="M31.2245 11.8058H19.1619C18.5973 11.8058 18.0559 12.0301 17.6567 12.4293C17.2575 12.8285 17.0332 13.3699 17.0332 13.9345V22.4492C17.0332 23.0138 17.2575 23.5553 17.6567 23.9545C18.0559 24.3537 18.5973 24.5779 19.1619 24.5779H28.7765L32.1682 27.2104C32.269 27.285 32.3878 27.3315 32.5125 27.3452C32.6371 27.3589 32.7632 27.3393 32.8778 27.2885C32.9985 27.231 33.1006 27.1405 33.1721 27.0275C33.2437 26.9145 33.2818 26.7836 33.2822 26.6499V13.9345C33.2825 13.382 33.068 12.851 32.684 12.4538C32.3 12.0566 31.7767 11.8242 31.2245 11.8058ZM31.9341 25.2449L29.4506 23.3078C29.3267 23.2117 29.1745 23.1593 29.0177 23.1588H19.1619C18.9737 23.1588 18.7932 23.0841 18.6602 22.951C18.5271 22.8179 18.4523 22.6374 18.4523 22.4492V13.9345C18.4523 13.7463 18.5271 13.5658 18.6602 13.4327C18.7932 13.2997 18.9737 13.2249 19.1619 13.2249H31.2245C31.4142 13.2421 31.591 13.3281 31.7217 13.4666C31.8524 13.6052 31.9279 13.7867 31.9341 13.9771V25.2449Z" fill="white"/>
</svg>
