<svg width="44" height="44" viewBox="0 0 44 44" fill="none" xmlns="http://www.w3.org/2000/svg">
<circle cx="22.1362" cy="22.2544" r="21.2998" fill="#2E9280"/>
<path d="M16.2147 9.62659H28.6369C29.6252 9.62659 30.5731 10.0192 31.272 10.7181C31.9709 11.417 32.3635 12.3649 32.3635 13.3532V30.7442C32.3635 31.7326 31.9709 32.6804 31.272 33.3793C30.5731 34.0782 29.6252 34.4708 28.6369 34.4708H16.2147C15.2264 34.4708 14.2785 34.0782 13.5796 33.3793C12.8807 32.6804 12.4881 31.7326 12.4881 30.7442V13.3532C12.4881 12.3649 12.8807 11.417 13.5796 10.7181C14.2785 10.0192 15.2264 9.62659 16.2147 9.62659ZM16.2147 12.111C15.8853 12.111 15.5693 12.2419 15.3364 12.4748C15.1034 12.7078 14.9725 13.0238 14.9725 13.3532V30.7442C14.9725 31.0736 15.1034 31.3896 15.3364 31.6226C15.5693 31.8555 15.8853 31.9864 16.2147 31.9864H28.6369C28.9663 31.9864 29.2823 31.8555 29.5152 31.6226C29.7482 31.3896 29.8791 31.0736 29.8791 30.7442V13.3532C29.8791 13.0238 29.7482 12.7078 29.5152 12.4748C29.2823 12.2419 28.9663 12.111 28.6369 12.111H16.2147ZM18.6992 13.3532H26.1524C26.4819 13.3532 26.7978 13.4841 27.0308 13.7171C27.2638 13.95 27.3946 14.266 27.3946 14.5954C27.3946 14.9249 27.2638 15.2409 27.0308 15.4738C26.7978 15.7068 26.4819 15.8376 26.1524 15.8376H18.6992C18.3697 15.8376 18.0537 15.7068 17.8208 15.4738C17.5878 15.2409 17.4569 14.9249 17.4569 14.5954C17.4569 14.266 17.5878 13.95 17.8208 13.7171C18.0537 13.4841 18.3697 13.3532 18.6992 13.3532ZM18.6992 28.2598H21.1836C21.513 28.2598 21.829 28.3906 22.062 28.6236C22.2949 28.8566 22.4258 29.1725 22.4258 29.502C22.4258 29.8314 22.2949 30.1474 22.062 30.3804C21.829 30.6133 21.513 30.7442 21.1836 30.7442H18.6992C18.3697 30.7442 18.0537 30.6133 17.8208 30.3804C17.5878 30.1474 17.4569 29.8314 17.4569 29.502C17.4569 29.1725 17.5878 28.8566 17.8208 28.6236C18.0537 28.3906 18.3697 28.2598 18.6992 28.2598ZM18.6992 23.2909H26.1524C26.4819 23.2909 26.7978 23.4218 27.0308 23.6548C27.2638 23.8877 27.3946 24.2037 27.3946 24.5331C27.3946 24.8626 27.2638 25.1785 27.0308 25.4115C26.7978 25.6445 26.4819 25.7753 26.1524 25.7753H18.6992C18.3697 25.7753 18.0537 25.6445 17.8208 25.4115C17.5878 25.1785 17.4569 24.8626 17.4569 24.5331C17.4569 24.2037 17.5878 23.8877 17.8208 23.6548C18.0537 23.4218 18.3697 23.2909 18.6992 23.2909ZM18.6992 18.3221H26.1524C26.4819 18.3221 26.7978 18.4529 27.0308 18.6859C27.2638 18.9189 27.3946 19.2348 27.3946 19.5643C27.3946 19.8937 27.2638 20.2097 27.0308 20.4427C26.7978 20.6756 26.4819 20.8065 26.1524 20.8065H18.6992C18.3697 20.8065 18.0537 20.6756 17.8208 20.4427C17.5878 20.2097 17.4569 19.8937 17.4569 19.5643C17.4569 19.2348 17.5878 18.9189 17.8208 18.6859C18.0537 18.4529 18.3697 18.3221 18.6992 18.3221Z" fill="white"/>
</svg>
